<?xml version="1.0" encoding="UTF-8" standalone="no"?>
<svg
   xmlns:dc="http://purl.org/dc/elements/1.1/"
   xmlns:cc="http://creativecommons.org/ns#"
   xmlns:rdf="http://www.w3.org/1999/02/22-rdf-syntax-ns#"
   xmlns:svg="http://www.w3.org/2000/svg"
   xmlns="http://www.w3.org/2000/svg"
   xmlns:sodipodi="http://sodipodi.sourceforge.net/DTD/sodipodi-0.dtd"
   xmlns:inkscape="http://www.inkscape.org/namespaces/inkscape"
   width="297mm"
   height="210mm"
   viewBox="0 0 297 210"
   version="1.1"
   id="svg5950"
   inkscape:version="1.0.1 (c497b03c, 2020-09-10)"
   sodipodi:docname="epica_aislado.svg">
  <defs
     id="defs5944" />
  <sodipodi:namedview
     id="base"
     pagecolor="#ffffff"
     bordercolor="#666666"
     borderopacity="1.0"
     inkscape:pageopacity="0.0"
     inkscape:pageshadow="2"
     inkscape:zoom="0.35"
     inkscape:cx="400"
     inkscape:cy="560"
     inkscape:document-units="mm"
     inkscape:current-layer="layer1"
     inkscape:document-rotation="0"
     showgrid="false"
     inkscape:window-width="1252"
     inkscape:window-height="706"
     inkscape:window-x="0"
     inkscape:window-y="23"
     inkscape:window-maximized="0" />
  <metadata
     id="metadata5947">
    <rdf:RDF>
      <cc:Work
         rdf:about="">
        <dc:format>image/svg+xml</dc:format>
        <dc:type
           rdf:resource="http://purl.org/dc/dcmitype/StillImage" />
        <dc:title></dc:title>
      </cc:Work>
    </rdf:RDF>
  </metadata>
  <g
     inkscape:label="Layer 1"
     inkscape:groupmode="layer"
     id="layer1">
    <text
       xml:space="preserve"
       style="font-style:normal;font-variant:normal;font-weight:normal;font-stretch:normal;font-size:13.8858px;line-height:1.25;font-family:'Arial Black';-inkscape-font-specification:'Arial Black, Normal';font-variant-ligatures:normal;font-variant-caps:normal;font-variant-numeric:normal;font-variant-east-asian:normal;fill:#000000;fill-opacity:1;stroke:none;stroke-width:0.347147"
       x="45.826881"
       y="138.77226"
       id="text5357"
       inkscape:export-xdpi="96"
       inkscape:export-ydpi="96"><tspan
         sodipodi:role="line"
         id="tspan5355"
         x="45.826881"
         y="138.77226"
         style="font-style:normal;font-variant:normal;font-weight:normal;font-stretch:normal;font-size:13.8858px;font-family:'Arial Black';-inkscape-font-specification:'Arial Black, Normal';font-variant-ligatures:normal;font-variant-caps:normal;font-variant-numeric:normal;font-variant-east-asian:normal;fill:#000000;stroke-width:0.347147">EFICIENCIA EN CICLISMO</tspan></text>
    <text
       xml:space="preserve"
       style="font-style:normal;font-weight:normal;font-size:10.5833px;line-height:1.25;font-family:sans-serif;fill:#000000;fill-opacity:1;stroke:none;stroke-width:0.264583"
       x="87.189552"
       y="149.69894"
       id="text5428"
       inkscape:export-xdpi="96"
       inkscape:export-ydpi="96"><tspan
         sodipodi:role="line"
         id="tspan5426"
         x="87.189552"
         y="149.69894"
         style="fill:#000000;stroke-width:0.264583">www.epicabikes.com</tspan></text>
    <g
       id="g5874"
       transform="translate(-17.454944,26.324037)"
       inkscape:export-xdpi="96"
       inkscape:export-ydpi="96">
      <g
         id="g5888"
         inkscape:export-xdpi="96"
         inkscape:export-ydpi="96">
        <path
           id="path5850"
           style="fill:#1b6aa7;fill-opacity:1;stroke:#2b2900;stroke-width:0.1;stroke-miterlimit:4;stroke-dasharray:none;stroke-opacity:1"
           d="m 120.49135,32.507576 v 39.673548 h 9.90069 v -9.901206 h 9.9012 l 9.90069,-9.923941 v -9.92446 l -9.90069,-9.923941 z m 9.9008,9.944795 6.17632,-0.07343 3.72456,3.724566 -2e-5,2.527837 -3.72455,3.724574 h -6.17632 z"
           sodipodi:nodetypes="cccccccccccccccc" />
        <path
           id="path5852"
           style="fill:#1b6aa7;fill-opacity:1;stroke:#2b2900;stroke-width:0.1;stroke-miterlimit:4;stroke-dasharray:none;stroke-opacity:1"
           d="m 156.34297,42.431671 h -6.14906 l 11.20059,-9.92425 10.99841,9.92425 h -6.14906 v 29.74938 h -9.90088 z"
           sodipodi:nodetypes="cccccccc" />
        <path
           id="path5854"
           style="fill:#1b6aa7;fill-opacity:1;stroke:#2b2900;stroke-width:0.1;stroke-miterlimit:4;stroke-dasharray:none;stroke-opacity:1"
           d="m 172.39291,72.181051 v -29.74938 h 29.70264 l -9.90088,9.92425 h -9.90088 v 9.92425 h 9.90088 l 9.90088,9.90088 z"
           sodipodi:nodetypes="ccccccccc" />
        <path
           id="path5856"
           style="fill:#1b6aa7;fill-opacity:1;stroke:#2b2900;stroke-width:0.0984194;stroke-miterlimit:4;stroke-dasharray:none;stroke-opacity:1"
           d="m 108.19315,16.434101 12.29812,16.07332 H 94.517077 v 9.92425 h 19.825133 v 9.92425 H 94.517077 v 9.92425 h 19.825133 v 9.90088 H 78.46713 v -55.74695 z"
           sodipodi:nodetypes="ccccccccccccc" />
        <path
           id="path5858"
           style="fill:#1b6aa7;fill-opacity:1;stroke:#2b2900;stroke-width:0.1;stroke-miterlimit:4;stroke-dasharray:none;stroke-opacity:1"
           d="m 244.11994,16.434391 -42.02435,25.997532 v 29.749379 l 12.29808,-2.51e-4 v -9.90088 h 13.67609 v 9.901205 h 16.05018 V 22.58337 Z m -16.05018,25.997378 v 9.92446 l -13.67609,-3.08e-4 z"
           sodipodi:nodetypes="cccccccccccccc" />
        <path
           id="path5860"
           style="fill:#bd082e;fill-opacity:1;stroke:none;stroke-width:0.1"
           d="m 78.467132,13.788266 30.784588,3.8e-5 12.29796,16.073437 h 19.80189 l 8.84236,8.865608 11.20035,-9.394775 12.05715,10.453108 h 28.64424 l 30.87754,-19.101846 11.14648,-6.89557 v -2.882944 l -42.02414,25.958989 h -27.87162 l -12.85746,-11.238557 -11.17256,9.567319 -7.93151,-8.142124 -19.66931,-0.04338 c -4.09957,-5.358111 -8.20356,-10.81324 -12.30291,-16.17151 l -31.823048,0.03088 z"
           sodipodi:nodetypes="cccccccccccccccccccc" />
        <path
           id="path5862"
           style="fill:#bd082e;fill-opacity:1;stroke:none;stroke-width:0.1"
           d="m 78.46713,81.423701 107.26009,-3e-6 v 3.082787 l -107.26009,6e-6 z"
           sodipodi:nodetypes="ccccc" />
        <path
           id="path5864"
           style="fill:#bd082e;fill-opacity:1;stroke:none;stroke-width:0.1"
           d="M 187.48125,74.340413 V 91.61481 h 7.34479 c 1.69545,0 4.71392,-1.879896 4.71392,-4.630724 0,-2.477391 -1.24439,-4.016475 -1.97869,-4.006474 0.75234,-0.01857 1.97869,-1.553493 1.97869,-3.730522 0,-2.40021 -2.60721,-4.906677 -4.71392,-4.906677 z m 3.02464,3.041674 h 4.32015 c 2.28057,0 2.41138,4.041614 0,4.041614 h -2.63137 v 3.083015 h 2.63137 c 2.9034,0 2.89755,4.590417 0,4.590417 h -4.32015 z" />
        <path
           id="path5866"
           style="fill:#bd082e;fill-opacity:1;stroke:none;stroke-width:0.1"
           d="m 200.65388,74.339941 h 3.02447 v 17.27472 h -3.02447 z"
           sodipodi:nodetypes="ccccc" />
        <path
           id="path5868"
           style="fill:#bd082e;fill-opacity:1;stroke:none;stroke-width:0.1"
           d="m 222.99067,74.339941 h 7.58281 v 3.0421 h -4.55836 v 4.04166 h 4.02919 v 3.08279 h -4.02919 v 4.46665 h 4.55836 v 2.64152 h -7.58281 z"
           sodipodi:nodetypes="ccccccccccccc" />
        <path
           id="path5870"
           style="fill:#bd082e;fill-opacity:1;stroke:none;stroke-width:0.1"
           d="m 231.87872,88.973141 h 7.38577 c 2.58828,0 2.92212,-4.46665 0,-4.46665 h -2.90059 c -2.69344,0 -4.3518,-2.74897 -4.48518,-5.0112 -0.13339,-2.26223 1.3972,-4.84006 4.44599,-5.15535 h 6.55531 v 3.0421 h -6.55531 c -1.71578,0 -1.59306,4.04166 0,4.04166 h 2.93978 c 3.61553,0 4.74255,2.61456 4.85862,5.03286 0.11607,2.41831 -2.32541,5.1581 -4.48764,5.1581 h -7.75675 z"
           sodipodi:nodetypes="cssczcccccczccc" />
        <path
           id="path5872"
           style="opacity:1;fill:#bd082e;fill-opacity:1;stroke:none;stroke-width:0.1"
           d="m 205.29872,74.339941 h 2.94591 l -2e-5,9.060632 9.04033,-9.060632 h 3.79824 l -8.65167,8.62755 8.65167,8.64717 h -3.79824 l -6.74717,-6.72956 -2.29316,2.29316 v 4.4364 h -2.94589 z"
           sodipodi:nodetypes="ccccccccccccc" />
      </g>
    </g>
  </g>
</svg>
